<?xml version="1.0" encoding="utf-8"?>
<svg xmlns="http://www.w3.org/2000/svg">
  <defs>
    <symbol id="folder" viewBox="0 0 24 24">
      <path d="M9.5,8l0,-2.5l10,0l0,13l-15,0l0,-10l4.5,0c0.276,0 0.5,-0.224 0.5,-0.5Z" style="fill:#e7ca62;fill-rule:nonzero;stroke:#000;stroke-width:1px;"/>
    </symbol>
    <symbol id="folder-add" viewBox="0 0 24 24">
      <use href="#folder"/>
      <path d="M15,12l0,4m-2,-2l4,0" style="fill:none;fill-rule:nonzero;stroke:#000;stroke-width:1px;stroke-linecap:round;stroke-linejoin:miter;"/>
    </symbol>
    <symbol id="folder-remove" viewBox="0 0 24 24">
      <use href="#folder"/>
      <path d="M13,14l4,0" style="fill:none;fill-rule:nonzero;stroke:#000;stroke-width:1px;stroke-linecap:round;stroke-linejoin:miter;"/>
    </symbol>
    <symbol id="arrow-one"  viewBox="0 0 211 41">
        <path d="M210.319 25.2418C210.714 24.5135 210.443 23.6031 209.715 23.2083L197.846 16.7759C197.117 16.3812 196.207 16.6517 195.812 17.38C195.417 18.1084 195.688 19.0188 196.416 19.4135L206.966 25.1312L201.249 35.6815C200.854 36.4098 201.125 37.3202 201.853 37.7149C202.581 38.1097 203.492 37.8392 203.886 37.1109L210.319 25.2418ZM0.909075 3.02951C22.0289 25.4093 92.9631 60.562 209.427 25.965L208.573 23.0892C92.9216 57.4448 23.2564 22.339 3.09092 0.970494L0.909075 3.02951Z" 
        style="fill:#5BC7A7;fill-rule:nonzero;stroke:#5BC7A7;stroke-width:1px;stroke-linecap:round;stroke-linejoin:miter;"/>
    </symbol>
    <symbol id="arrow-two" viewBox="0 0 211 41">
        <path d="M209.603 15.6471C210.362 15.3139 210.707 14.4289 210.373 13.6704L204.943 1.31074C204.61 0.552287 203.725 0.207574 202.966 0.540801C202.208 0.874028 201.863 1.75901 202.196 2.51746L207.023 13.5039L196.037 18.3308C195.278 18.664 194.934 19.549 195.267 20.3074C195.6 21.0659 196.485 21.4106 197.244 21.0774L209.603 15.6471ZM1.60047 34.3746C21.6082 25.6343 56.0243 14.1911 94.1276 8.32748C132.255 2.46026 173.892 2.20835 208.456 15.6715L209.544 12.8761C174.272 -0.862987 132.027 -0.539975 93.6713 5.36238C55.2924 11.2684 20.6267 22.7893 0.39953 31.6254L1.60047 34.3746Z" fill="#5BC7A7"/>
    </symbol>
    <symbol id="arrow-three" viewBox="0 0 211 41">
        <path d="M206.831 21.1912C207.213 20.4559 206.926 19.5504 206.191 19.1687L194.21 12.9483C193.474 12.5666 192.569 12.8532 192.187 13.5885C191.805 14.3237 192.092 15.2292 192.827 15.6109L203.478 21.1401L197.948 31.7904C197.567 32.5256 197.853 33.4311 198.588 33.8128C199.324 34.1945 200.229 33.9079 200.611 33.1727L206.831 21.1912ZM0.272119 3.31156C32.3429 21.11 118.243 49.6914 205.953 21.9301L205.047 19.0699C118.357 46.5086 33.3237 18.2233 1.72788 0.68844L0.272119 3.31156Z" fill="#5BC7A7"/>
    </symbol>

  </defs>
</svg>